<svg xmlns="http://www.w3.org/2000/svg" viewBox="0 0 100 100" role="img" aria-label="Nock">
  <defs>
    <clipPath id="nock-n" clipPathUnits="userSpaceOnUse">
      <path transform="translate(19.58 81) scale(0.044286 -0.044286)" d="M414 8Q414 5 411.5 2.5Q409 0 404 0L20 0Q15 0 12.5 2.5Q10 5 10 8Q10 14 22 18L42 24Q107 44 153.5 92.5Q200 141 200 227L200 1154Q200 1166 199 1171.5Q198 1177 190 1190L94 1364Q89 1374 82.5 1383Q76 1392 76 1396Q76 1398 78 1399Q80 1400 86 1400L554 1400Q559 1400 563.5 1397Q568 1394 572 1386L1170 222L1150 174L1150 1173Q1150 1259 1104 1308Q1058 1357 992 1376L972 1382Q960 1386 960 1392Q960 1395 962.5 1397.5Q965 1400 970 1400L1354 1400Q1359 1400 1361.5 1397.5Q1364 1395 1364 1392Q1364 1386 1352 1382L1332 1376Q1267 1357 1220.5 1308Q1174 1259 1174 1173L1174 232Q1174 219 1178 208.5Q1182 198 1186 190L1262 58Q1276 33 1280 23Q1284 13 1284 8Q1284 5 1281 2.5Q1278 0 1270 0L832 0Q818 0 818 16Q818 22 815 33.5Q812 45 808 52L164 1254L224 1254L224 226Q224 141 271 92.5Q318 44 382 24L402 18Q414 14 414 8Z"/>
    </clipPath>
  </defs>
  <rect x="1" y="1" width="98" height="98" rx="21" fill="#222a3f" stroke="#2f3a54" stroke-width="1.6"/>
  <g clip-path="url(#nock-n)">
    <rect x="0" y="0" width="100" height="100" fill="#eef2f9"/>
    <polygon points="28,0 46,0 72,100 54,100" fill="#c9e4f8"/>
  </g>
</svg>
